HIERARCHY
ROOT hip
{
  OFFSET 0 0 0
  CHANNELS 6 Xposition Yposition Zposition Zrotation Yrotation Xrotation
  JOINT abdomen
  {
    OFFSET 0 20.6881 -0.73152
    CHANNELS 3 Zrotation Xrotation Yrotation
    JOINT chest
    {
      OFFSET 0 11.7043 -0.48768
      CHANNELS 3 Zrotation Xrotation Yrotation
      JOINT neck
      {
        OFFSET 0 22.1894 -2.19456
        CHANNELS 3 Zrotation Xrotation Yrotation
        JOINT head
        {
          OFFSET -0.24384 7.07133 1.2192
          CHANNELS 3 Zrotation Xrotation Yrotation
          JOINT leftEye
          {
            OFFSET 4.14528 8.04674 8.04672
            CHANNELS 3 Zrotation Xrotation Yrotation
            End Site
            {
              OFFSET 1 0 0
            }
          }
          JOINT rightEye
          {
            OFFSET -3.6576 8.04674 8.04672
            CHANNELS 3 Zrotation Xrotation Yrotation
            End Site
            {
              OFFSET 1 0 0
            }
          }
        }
      }
      JOINT rCollar
      {
        OFFSET -2.68224 19.2634 -4.8768
        CHANNELS 3 Zrotation Xrotation Yrotation
        JOINT rShldr
        {
          OFFSET -8.77824 -1.95073 1.46304
          CHANNELS 3 Zrotation Xrotation Yrotation
          JOINT rForeArm
          {
            OFFSET -28.1742 -1.7115 0.48768
            CHANNELS 3 Zrotation Xrotation Yrotation
            JOINT rHand
            {
              OFFSET -22.5879 0.773209 7.07136
              CHANNELS 3 Zrotation Xrotation Yrotation
              JOINT rThumb1
              {
                OFFSET -1.2192 -0.487915 3.41376
                CHANNELS 3 Zrotation Xrotation Yrotation
                JOINT rThumb2
                {
                  OFFSET -3.37035 -0.52449 3.41376
                  CHANNELS 3 Zrotation Xrotation Yrotation
                  End Site
                  {
                    OFFSET -1.78271 -1.18214 1.43049
                  }
                }
              }
              JOINT rIndex1
              {
                OFFSET -7.75947 0.938293 5.60832
                CHANNELS 3 Zrotation Xrotation Yrotation
                JOINT rIndex2
                {
                  OFFSET -2.54057 -0.884171 1.56538
                  CHANNELS 3 Zrotation Xrotation Yrotation
                  End Site
                  {
                    OFFSET -1.62519 -0.234802 1.16502
                  }
                }
              }
              JOINT rMid1
              {
                OFFSET -8.24714 1.18213 3.41376
                CHANNELS 3 Zrotation Xrotation Yrotation
                JOINT rMid2
                {
                  OFFSET -3.10165 -0.590103 1.0647
                  CHANNELS 3 Zrotation Xrotation Yrotation
                  End Site
                  {
                    OFFSET -2.48547 -0.328903 0.83742
                  }
                }
              }
              JOINT rRing1
              {
                OFFSET -8.82822 0.546677 1.51678
                CHANNELS 3 Zrotation Xrotation Yrotation
                JOINT rRing2
                {
                  OFFSET -2.60934 -0.819778 -0.0198488
                  CHANNELS 3 Zrotation Xrotation Yrotation
                  End Site
                  {
                    OFFSET -2.33842 -0.294052 0.168128
                  }
                }
              }
              JOINT rPinky1
              {
                OFFSET -8.27202 -0.0477905 -0.4584
                CHANNELS 3 Zrotation Xrotation Yrotation
                JOINT rPinky2
                {
                  OFFSET -1.82734 -0.647385 -0.700984
                  CHANNELS 3 Zrotation Xrotation Yrotation
                  End Site
                  {
                    OFFSET -1.69225 -0.51767 -0.607171
                  }
                }
              }
            }
          }
        }
      }
      JOINT lCollar
      {
        OFFSET 2.68224 19.2634 -4.8768
        CHANNELS 3 Zrotation Xrotation Yrotation
        JOINT lShldr
        {
          OFFSET 8.77824 -1.95073 1.46304
          CHANNELS 3 Zrotation Xrotation Yrotation
          JOINT lForeArm
          {
            OFFSET 28.1742 -1.7115 0.48768
            CHANNELS 3 Zrotation Xrotation Yrotation
            JOINT lHand
            {
              OFFSET 22.5879 0.773209 7.07136
              CHANNELS 3 Zrotation Xrotation Yrotation
              JOINT lThumb1
              {
                OFFSET 1.2192 -0.487915 3.41376
                CHANNELS 3 Zrotation Xrotation Yrotation
                JOINT lThumb2
                {
                  OFFSET 3.37035 -0.52449 3.41376
                  CHANNELS 3 Zrotation Xrotation Yrotation
                  End Site
                  {
                    OFFSET 1.78271 -1.18214 1.43049
                  }
                }
              }
              JOINT lIndex1
              {
                OFFSET 7.75947 0.938293 5.60832
                CHANNELS 3 Zrotation Xrotation Yrotation
                JOINT lIndex2
                {
                  OFFSET 2.54057 -0.884171 1.56538
                  CHANNELS 3 Zrotation Xrotation Yrotation
                  End Site
                  {
                    OFFSET 1.62519 -0.234802 1.16502
                  }
                }
              }
              JOINT lMid1
              {
                OFFSET 8.24714 1.18213 3.41376
                CHANNELS 3 Zrotation Xrotation Yrotation
                JOINT lMid2
                {
                  OFFSET 3.10165 -0.590103 1.0647
                  CHANNELS 3 Zrotation Xrotation Yrotation
                  End Site
                  {
                    OFFSET 2.48547 -0.328903 0.83742
                  }
                }
              }
              JOINT lRing1
              {
                OFFSET 8.82822 0.546677 1.51678
                CHANNELS 3 Zrotation Xrotation Yrotation
                JOINT lRing2
                {
                  OFFSET 2.60934 -0.819778 -0.0198488
                  CHANNELS 3 Zrotation Xrotation Yrotation
                  End Site
                  {
                    OFFSET 2.33842 -0.294052 0.168128
                  }
                }
              }
              JOINT lPinky1
              {
                OFFSET 8.27202 -0.0477905 -0.4584
                CHANNELS 3 Zrotation Xrotation Yrotation
                JOINT lPinky2
                {
                  OFFSET 1.82734 -0.647385 -0.700984
                  CHANNELS 3 Zrotation Xrotation Yrotation
                  End Site
                  {
                    OFFSET 1.69225 -0.51767 -0.607171
                  }
                }
              }
            }
          }
        }
      }
    }
  }
  JOINT rButtock
  {
    OFFSET -8.77824 4.35084 1.2192
    CHANNELS 3 Zrotation Xrotation Yrotation
    JOINT rThigh
    {
      OFFSET 0 -1.70687 -2.19456
      CHANNELS 3 Zrotation Xrotation Yrotation
      JOINT rShin
      {
        OFFSET 0 -36.8199 0.73152
        CHANNELS 3 Zrotation Xrotation Yrotation
        JOINT rFoot
        {
          OFFSET 0.73152 -45.1104 -5.12064
          CHANNELS 3 Zrotation Xrotation Yrotation
          End Site
          {
            OFFSET -1.1221 -3.69964 12.103
          }
        }
      }
    }
  }
  JOINT lButtock
  {
    OFFSET 8.77824 4.35084 1.2192
    CHANNELS 3 Zrotation Xrotation Yrotation
    JOINT lThigh
    {
      OFFSET 0 -1.70687 -2.19456
      CHANNELS 3 Zrotation Xrotation Yrotation
      JOINT lShin
      {
        OFFSET 0 -36.8199 0.73152
        CHANNELS 3 Zrotation Xrotation Yrotation
        JOINT lFoot
        {
          OFFSET -0.73152 -45.1104 -5.12064
          CHANNELS 3 Zrotation Xrotation Yrotation
          End Site
          {
            OFFSET 1.1221 -3.69964 12.103
          }
        }
      }
    }
  }
}
MOTION
Frames:	4
Frame Time:	0.00833333
0.0922941 0.685227 0.205129 -358.13 -7.5025997 -357.61197 -7.3196793 10.748899 6.9052596 3.4370599 -7.8037 1.8161598 -4.0624394 13.627499 -2.93407 5.12894 -27.072397 -4.42589 -0.0 0.0 0.0 -0.0 0.0 0.0 1.7278498e-14 5.80457e-14 1.51375e-13 -6.07654 45.876595 76.2158 -10.228499 -4.28138 18.230698 -1.10239 28.389797 4.3562593 7.4314893e-10 2.8132998e-09 -1.0162698e-09 1.2564599e-09 4.8516595e-09 -1.7716999e-09 7.431589e-10 2.8133298e-09 -1.01629e-09 7.73091 5.47488 0.41731396 7.4314493e-10 2.8133098e-09 -1.0162698e-09 2.90554 0.96518296 0.102901995 7.431619e-10 2.81332e-09 -1.01628e-09 10.278599 0.7318009 0.0259123 7.4314893e-10 2.8133098e-09 -1.01626e-09 2.22167 -0.733487 -0.20891999 1.7261398e-14 5.8044695e-14 1.5102699e-13 -48.563198 16.336 -75.9921 28.416199 -36.634296 -78.076195 0.0034131098 -1.6678998 0.23447499 -7.2605194e-10 5.8061295e-10 1.6883699e-09 -1.2579698e-09 1.0047199e-09 2.91714e-09 -7.2605394e-10 5.8061295e-10 1.6883799e-09 -7.73091 5.47488 -0.41731396 -7.2604894e-10 5.8061195e-10 1.6883699e-09 -2.90554 0.96518296 -0.102901995 -7.2605394e-10 5.8061195e-10 1.6883699e-09 -10.278599 0.7318009 -0.0259123 -7.2604495e-10 5.8061395e-10 1.68836e-09 -2.22167 -0.733487 0.20891999 -2.0321698e-16 0.0 -3.8825097e-19 -6.6408296 -36.653 -5.8978796 -157.29199 87.07399 157.622 -1.6934699 4.1406 -11.445499 2.0321698e-16 0.0 3.8825097e-19 3.4602299 -54.006596 19.176699 2.3312497 70.72149 -2.24079 8.092109 -9.9711895 24.566097
0.0951334 0.68451697 0.222618 -357.93896 -6.6800995 -358.09097 -7.4248695 11.004799 6.8529696 3.2671099 -7.77024 1.8174598 -4.10843 13.806999 -3.15636 5.1408696 -26.7767 -4.88333 -0.0 0.0 0.0 -0.0 0.0 0.0 7.3478794e-14 1.5505899e-14 4.1822397e-14 -1.4560299 44.7729 72.3431 -9.848009 -4.0496798 17.516499 -1.03976 27.647299 4.2221894 3.4584696e-10 1.6828199e-09 -7.0716594e-10 5.797449e-10 2.8976799e-09 -1.2291399e-09 3.4585898e-10 1.6828298e-09 -7.071829e-10 7.73091 5.47488 0.41731396 3.4584596e-10 1.6828199e-09 -7.0717093e-10 2.90554 0.96518296 0.102901995 3.4585598e-10 1.6828298e-09 -7.0717493e-10 10.278599 0.7318009 0.0259123 3.45844e-10 1.6828199e-09 -7.0715594e-10 2.22167 -0.733487 -0.20891999 7.349309e-14 1.5504398e-14 4.1611198e-14 -47.736996 16.366098 -75.68839 28.281998 -38.577595 -81.3803 0.009126969 1.6095899 -0.22654498 -3.8502698e-10 2.0156099e-10 7.1391293e-10 -6.66298e-10 3.4738598e-10 1.2334499e-09 -3.8502898e-10 2.0156299e-10 7.139209e-10 -7.73091 5.47488 -0.41731396 -3.8503198e-10 2.0156099e-10 7.1391093e-10 -2.90554 0.96518296 -0.102901995 -3.8502998e-10 2.0155999e-10 7.1391393e-10 -10.278599 0.7318009 -0.0259123 -3.8502299e-10 2.0156199e-10 7.1390793e-10 -2.22167 -0.733487 0.20891999 -2.0321698e-16 0.0 -3.8825097e-19 -6.60825 -41.3617 -6.8248696 -163.832 85.88829 164.227 -2.3889596 1.9460899 -13.004699 2.0321698e-16 0.0 3.8825097e-19 2.0171297 -52.4267 18.531097 2.3377798 71.1019 -2.4150898 8.77942 -11.203799 24.836298
0.097643204 0.68381697 0.24074899 -357.71097 -5.6827993 -358.71698 -7.22004 11.185199 6.5934496 3.09488 -7.7464194 1.7705699 -4.1624494 13.972099 -3.35796 5.18928 -26.407497 -5.2919693 -0.0 0.0 0.0 -0.0 0.0 0.0 9.257059e-14 -2.86246e-14 -6.41578e-14 4.22304 43.107697 67.92579 -9.47852 -3.83039 16.827099 -0.97437894 26.851997 4.0801797 -1.26631e-10 2.7562697e-11 -1.67631e-10 -2.2192098e-10 3.9111298e-11 -2.8713598e-10 -1.2661798e-10 2.7564298e-11 -1.6764999e-10 7.73091 5.47488 0.41731396 -1.26629e-10 2.75573e-11 -1.67638e-10 2.90554 0.96518296 0.102901995 -1.26627e-10 2.7562598e-11 -1.6764098e-10 10.278599 0.7318009 0.0259123 -1.26636e-10 2.7564298e-11 -1.6762498e-10 2.22167 -0.733487 -0.20891999 9.2603395e-14 -2.8625797e-14 -6.4207395e-14 -47.162098 16.693499 -74.984795 27.978998 -40.523895 -84.8657 0.030136697 4.9492397 -0.697322 9.677789e-11 -2.2931199e-10 -4.1275597e-10 1.6690399e-10 -3.9784598e-10 -7.138559e-10 9.677429e-11 -2.2930799e-10 -4.1275297e-10 -7.73091 5.47488 -0.41731396 9.6766296e-11 -2.29311e-10 -4.1275997e-10 -2.90554 0.96518296 -0.102901995 9.6770696e-11 -2.2931199e-10 -4.1275297e-10 -10.278599 0.7318009 -0.0259123 9.6777496e-11 -2.29311e-10 -4.1275597e-10 -2.22167 -0.733487 0.20891999 -2.0321698e-16 0.0 -3.8825097e-19 -6.5824594 -45.651897 -7.727399 -164.30998 85.79299 164.79599 -3.3515198 -0.62614495 -14.860199 2.0321698e-16 0.0 3.8825097e-19 0.94264287 -50.755898 17.984999 2.3505697 71.56259 -2.6261997 9.515329 -12.571699 25.058798
0.0997116 0.68251294 0.25952798 -357.41898 -4.4840994 -359.49496 -7.2561793 11.591299 6.0900397 3.1427598 -7.773379 1.6569599 -4.3074994 14.077499 -3.5463898 5.28999 -26.094398 -5.65362 -0.0 0.0 0.0 -0.0 0.0 0.0 -6.500229e-14 -1.50584e-14 2.0748097e-15 10.241099 40.702198 63.595 -9.11959 -3.6236799 16.159899 -0.91131294 26.005898 3.9327497 -2.2388298e-10 -1.4343698e-09 5.30959e-10 -3.7684098e-10 -2.48128e-09 9.210999e-10 -2.2387499e-10 -1.43436e-09 5.3093596e-10 7.73091 5.47488 0.41731396 -2.23882e-10 -1.4343698e-09 5.3095794e-10 2.90554 0.96518296 0.102901995 -2.2387799e-10 -1.4343698e-09 5.3095595e-10 10.278599 0.7318009 0.0259123 -2.2388698e-10 -1.4343698e-09 5.3096694e-10 2.22167 -0.733487 -0.20891999 -6.49605e-14 -1.50574e-14 2.03443e-15 -46.856598 17.253098 -73.80509 27.521399 -42.462296 -88.43189 0.10208299 8.99987 -1.2768599 3.7759298e-10 -2.1210499e-10 -9.1922897e-10 6.469659e-10 -3.6601996e-10 -1.5930899e-09 3.77588e-10 -2.12104e-10 -9.1922486e-10 -7.73091 5.47488 -0.41731396 3.7758596e-10 -2.1210499e-10 -9.1922797e-10 -2.90554 0.96518296 -0.102901995 3.7758396e-10 -2.1210698e-10 -9.1922386e-10 -10.278599 0.7318009 -0.0259123 3.7759498e-10 -2.1210599e-10 -9.1922586e-10 -2.22167 -0.733487 0.20891999 -2.0321698e-16 0.0 -3.8825097e-19 -6.8601394 -49.374195 -8.29324 -161.096 86.57039 161.68999 -4.4366293 -3.2867799 -16.5275 2.0321698e-16 0.0 3.8825097e-19 -0.24876097 -48.803696 17.3616 2.3635798 72.0656 -2.8535097 10.2893 -14.049099 25.2648
